<svg width="108" height="20" viewBox="0 0 108 20" fill="none" xmlns="http://www.w3.org/2000/svg">
<path d="M9.04894 3.92704C9.3483 3.00573 10.6517 3.00573 10.9511 3.92704L12.0206 7.21883C12.1545 7.63086 12.5385 7.90982 12.9717 7.90982H16.4329C17.4016 7.90982 17.8044 9.14943 17.0207 9.71883L14.2205 11.7533C13.87 12.0079 13.7234 12.4593 13.8572 12.8713L14.9268 16.1631C15.2261 17.0844 14.1717 17.8505 13.388 17.2811L10.5878 15.2467C10.2373 14.9921 9.7627 14.9921 9.41221 15.2467L6.61204 17.2811C5.82833 17.8505 4.77385 17.0844 5.0732 16.1631L6.14277 12.8713C6.27665 12.4593 6.12999 12.0079 5.7795 11.7533L2.97933 9.71883C2.19562 9.14943 2.59839 7.90982 3.56712 7.90982H7.02832C7.46154 7.90982 7.8455 7.63086 7.97937 7.21883L9.04894 3.92704Z" fill="#FFC303"/>
<path d="M31.0489 3.92704C31.3483 3.00573 32.6517 3.00573 32.9511 3.92704L34.0206 7.21883C34.1545 7.63086 34.5385 7.90982 34.9717 7.90982H38.4329C39.4016 7.90982 39.8044 9.14943 39.0207 9.71883L36.2205 11.7533C35.87 12.0079 35.7234 12.4593 35.8572 12.8713L36.9268 16.1631C37.2261 17.0844 36.1717 17.8505 35.388 17.2811L32.5878 15.2467C32.2373 14.9921 31.7627 14.9921 31.4122 15.2467L28.612 17.2811C27.8283 17.8505 26.7739 17.0844 27.0732 16.1631L28.1428 12.8713C28.2766 12.4593 28.13 12.0079 27.7795 11.7533L24.9793 9.71883C24.1956 9.14943 24.5984 7.90982 25.5671 7.90982H29.0283C29.4615 7.90982 29.8455 7.63086 29.9794 7.21883L31.0489 3.92704Z" fill="#FFC303"/>
<path d="M53.0489 3.92704C53.3483 3.00573 54.6517 3.00573 54.9511 3.92704L56.0206 7.21883C56.1545 7.63086 56.5385 7.90982 56.9717 7.90982H60.4329C61.4016 7.90982 61.8044 9.14943 61.0207 9.71883L58.2205 11.7533C57.87 12.0079 57.7234 12.4593 57.8572 12.8713L58.9268 16.1631C59.2261 17.0844 58.1717 17.8505 57.388 17.2811L54.5878 15.2467C54.2373 14.9921 53.7627 14.9921 53.4122 15.2467L50.612 17.2811C49.8283 17.8505 48.7739 17.0844 49.0732 16.1631L50.1428 12.8713C50.2766 12.4593 50.13 12.0079 49.7795 11.7533L46.9793 9.71883C46.1956 9.14943 46.5984 7.90982 47.5671 7.90982H51.0283C51.4615 7.90982 51.8455 7.63086 51.9794 7.21883L53.0489 3.92704Z" fill="#FFC303"/>
<path d="M75.0489 3.92704C75.3483 3.00573 76.6517 3.00573 76.9511 3.92704L78.0206 7.21883C78.1545 7.63086 78.5385 7.90982 78.9717 7.90982H82.4329C83.4016 7.90982 83.8044 9.14943 83.0207 9.71883L80.2205 11.7533C79.87 12.0079 79.7234 12.4593 79.8572 12.8713L80.9268 16.1631C81.2261 17.0844 80.1717 17.8505 79.388 17.2811L76.5878 15.2467C76.2373 14.9921 75.7627 14.9921 75.4122 15.2467L72.612 17.2811C71.8283 17.8505 70.7739 17.0844 71.0732 16.1631L72.1428 12.8713C72.2766 12.4593 72.13 12.0079 71.7795 11.7533L68.9793 9.71883C68.1956 9.14943 68.5984 7.90982 69.5671 7.90982H73.0283C73.4615 7.90982 73.8455 7.63086 73.9794 7.21883L75.0489 3.92704Z" fill="#FFC303"/>
<path d="M97.0489 3.92704C97.3483 3.00573 98.6517 3.00573 98.9511 3.92704L100.021 7.21883C100.155 7.63086 100.538 7.90982 100.972 7.90982H104.433C105.402 7.90982 105.804 9.14943 105.021 9.71883L102.22 11.7533C101.87 12.0079 101.723 12.4593 101.857 12.8713L102.927 16.1631C103.226 17.0844 102.172 17.8505 101.388 17.2811L98.5878 15.2467C98.2373 14.9921 97.7627 14.9921 97.4122 15.2467L94.612 17.2811C93.8283 17.8505 92.7739 17.0844 93.0732 16.1631L94.1428 12.8713C94.2766 12.4593 94.13 12.0079 93.7795 11.7533L90.9793 9.71883C90.1956 9.14943 90.5984 7.90982 91.5671 7.90982H95.0283C95.4615 7.90982 95.8455 7.63086 95.9794 7.21883L97.0489 3.92704Z" fill="#FFC303"/>
</svg>
